<?xml version="1.0" standalone="no"?><!DOCTYPE svg PUBLIC "-//W3C//DTD SVG 1.1//EN"
        "http://www.w3.org/Graphics/SVG/1.1/DTD/svg11.dtd">
<svg class="icon" viewBox="0 0 1024 1024" version="1.1" xmlns="http://www.w3.org/2000/svg"
     width="200" height="200">
    <path d="M968.145455 214.109091C930.909091 146.618182 877.381818 93.090909 809.890909 55.854545 742.4 18.618182 663.272727 0 542.254545 0h-62.836363c-118.690909 0-197.818182 18.618182-265.309091 55.854545C146.618182 93.090909 93.090909 146.618182 55.854545 214.109091 18.618182 281.6 0 360.727273 0 481.745455v62.836363c0 118.690909 18.618182 197.818182 55.854545 265.309091C93.090909 877.381818 146.618182 930.909091 214.109091 968.145455c67.490909 37.236364 146.618182 55.854545 265.309091 55.854545h62.836363c118.690909 0 197.818182-18.618182 265.309091-55.854545 67.490909-37.236364 121.018182-90.763636 158.254546-158.254546 37.236364-67.490909 55.854545-146.618182 55.854545-265.309091v-62.836363c2.327273-121.018182-16.290909-200.145455-53.527272-267.636364z m-465.454546-4.654546h30.254546v97.745455h-30.254546V209.454545z m-195.490909 330.472728H209.454545v-30.254546h97.745455v30.254546z m-18.618182-225.745455l20.945455-20.945454 69.818182 69.818181-20.945455 20.945455-69.818182-69.818182zM523.636364 837.818182c-37.236364 0-67.490909-32.581818-79.127273-79.127273h158.254545c-11.636364 46.545455-39.563636 79.127273-79.127272 79.127273z m134.981818-272.290909l-4.654546 9.309091-2.327272 2.327272s0 2.327273-2.327273 2.327273c0 0-34.909091 69.818182-41.890909 132.654546h-169.890909c-4.654545-55.854545-37.236364-130.327273-46.545455-144.29091-9.309091-18.618182-13.963636-39.563636-13.963636-62.836363 0-83.781818 65.163636-148.945455 144.290909-148.945455 79.127273 0 144.290909 67.490909 144.290909 148.945455 4.654545 25.6 2.327273 39.563636-6.981818 60.509091z m0-207.127273l69.818182-69.818182 20.945454 20.945455-69.818182 69.818182-20.945454-20.945455z m174.545454 174.545455h-97.745454v-30.254546h97.745454v30.254546z"
          fill="#1296db" />
</svg>